<svg width="6000" height="2000" viewBox="0 0 6000 2000" fill="none" xmlns="http://www.w3.org/2000/svg">
<rect width="6000" height="2000" fill="#FAFAFA"/>
<g clip-path="url(#clip0_149_1234)">
<path d="M2529 1243.5H2204V1081H2366.5V756H2691.5V918.5H2529V1243.5Z" fill="#121212"/>
</g>
<g clip-path="url(#clip1_149_1234)">
<path d="M2886.5 1243.5H2724V918.5H2886.5V1243.5Z" fill="#121212"/>
<path d="M2886.5 756H3049V918.5H2886.5V756Z" fill="#FF5B0C"/>
</g>
<g clip-path="url(#clip2_149_1234)">
<path d="M3244 1243.5H3081.5V756H3406.5V1081H3244V1243.5Z" fill="#121212"/>
</g>
<g clip-path="url(#clip3_149_1234)">
<path d="M3601.5 918.5H3764V756H3926.5V1243.5H3764V1081H3601.5V1243.5H3439V756H3601.5V918.5Z" fill="#121212"/>
</g>
<g clip-path="url(#clip4_149_1234)">
<path d="M4121.5 1243.5H3959V756H4284V918.5H4121.5V1243.5Z" fill="#121212"/>
</g>
<path d="M4609 1243.5H4446.5V1081H4284V918.5H4446.5V756H4609V918.5H4771.5V1081H4609V1243.5Z" fill="#FF5B0C"/>
<path d="M2041.5 1243.5H1229V1081H2041.5V1243.5ZM1391.5 1081H1229V918.5H1391.5V1081ZM2204 1081H2041.5V918.5H2204V1081ZM2204 756V918.498H1391.5V756H2204Z" fill="#FF5B0C"/>
<defs>
<clipPath id="clip0_149_1234">
<rect width="487.5" height="487.5" fill="white" transform="translate(2204 756)"/>
</clipPath>
<clipPath id="clip1_149_1234">
<rect width="325" height="487.5" fill="white" transform="translate(2724 756)"/>
</clipPath>
<clipPath id="clip2_149_1234">
<rect width="325" height="487.5" fill="white" transform="translate(3081.5 756)"/>
</clipPath>
<clipPath id="clip3_149_1234">
<rect width="487.5" height="487.5" fill="white" transform="translate(3439 756)"/>
</clipPath>
<clipPath id="clip4_149_1234">
<rect width="325" height="487.5" fill="white" transform="translate(3959 756)"/>
</clipPath>
</defs>
</svg>
